
  <svg width='1110px'
       height='246px'
       viewBox='0 0 1110 246'
       xmlns='http://www.w3.org/2000/svg'
       xmlns:xlink="http://www.w3.org/1999/xlink">

    <style type='text/css'>
    .keycap .border { stroke: black; stroke-width: 2; }
    .keycap .inner.border { stroke: rgba(0,0,0,.1); }
    </style>
    <defs>
      <linearGradient id="DCS">
        <stop offset="0%" stop-color="black" stop-opacity="0"/>
        <stop offset="40%" stop-color="black" stop-opacity="0.1"/>
        <stop offset="60%" stop-color="black" stop-opacity="0.1"/>
        <stop offset="100%" stop-color="black" stop-opacity="0"/>
      </linearGradient>
      <linearGradient id="SPACE" x1="0%" x2="0%" y1="0%" y2="100%">
        <stop offset="0%" stop-color="black" stop-opacity="0.1"/>
        <stop offset="20%" stop-color="black" stop-opacity="0.0"/>
        <stop offset="40%" stop-color="black" stop-opacity="0.0"/>
        <stop offset="100%" stop-color="black" stop-opacity="0.1"/>
      </linearGradient>
      <radialGradient id="DSA">
        <stop offset="0%" stop-color="black" stop-opacity="0.1"/>
        <stop offset="10%" stop-color="black" stop-opacity="0.1"/>
        <stop offset="100%" stop-color="black" stop-opacity="0"/>
      </radialGradient>
      <radialGradient id="SA" xlink:href="#DSA" />
    </defs>

    <g transform='translate(10,10)'>
      <rect width="1090" height="226"
            stroke="#ddd" stroke-width="1" fill="#eeeeee" rx="6"/>
      <g transform='translate(5,5)'>
        
  <g class='  keycap'
  >

  
    <!-- Outer Border -->
    <rect x="1" y="1"
          width="52" height="52"
          rx="5" fill="#a0a099" class="outer border"/>
    
    <!-- Outer Fill -->
    <rect x="1" y="1"
          width="52" height="52"
          rx="5" fill="#a0a099"/>
    

    
      <!-- Inner Border -->
      <rect x="7" y="4"
            width="40" height="40"
            rx="5" fill="#c5c5be" class="inner border"/>
      
      <!-- Inner Fill -->
      <rect x="7" y="4"
            width="40" height="40"
            rx="5" fill="#c5c5be"/>
      
      
        
        
        <rect x="7" y="4"
              width="40" height="40"
              rx="5" fill="url(#DCS)"/>
      

     
   
  </g>

  <g class='  keycap'
  >

  
    <!-- Outer Border -->
    <rect x="55" y="1"
          width="52" height="52"
          rx="5" fill="#a0a099" class="outer border"/>
    
    <!-- Outer Fill -->
    <rect x="55" y="1"
          width="52" height="52"
          rx="5" fill="#a0a099"/>
    

    
      <!-- Inner Border -->
      <rect x="61" y="4"
            width="40" height="40"
            rx="5" fill="#c5c5be" class="inner border"/>
      
      <!-- Inner Fill -->
      <rect x="61" y="4"
            width="40" height="40"
            rx="5" fill="#c5c5be"/>
      
      
        
        
        <rect x="61" y="4"
              width="40" height="40"
              rx="5" fill="url(#DCS)"/>
      

     
   
  </g>

  <g class='  keycap'
  >

  
    <!-- Outer Border -->
    <rect x="136" y="1"
          width="79" height="52"
          rx="5" fill="#a0a099" class="outer border"/>
    
    <!-- Outer Fill -->
    <rect x="136" y="1"
          width="79" height="52"
          rx="5" fill="#a0a099"/>
    

    
      <!-- Inner Border -->
      <rect x="142" y="4"
            width="67" height="40"
            rx="5" fill="#c5c5be" class="inner border"/>
      
      <!-- Inner Fill -->
      <rect x="142" y="4"
            width="67" height="40"
            rx="5" fill="#c5c5be"/>
      
      
        
        
        <rect x="142" y="4"
              width="67" height="40"
              rx="5" fill="url(#DCS)"/>
      

     
   
  </g>

  <g class='  keycap'
  >

  
    <!-- Outer Border -->
    <rect x="217" y="1"
          width="52" height="52"
          rx="5" fill="#ffffff" class="outer border"/>
    
    <!-- Outer Fill -->
    <rect x="217" y="1"
          width="52" height="52"
          rx="5" fill="#ffffff"/>
    

    
      <!-- Inner Border -->
      <rect x="223" y="4"
            width="40" height="40"
            rx="5" fill="#fffffe" class="inner border"/>
      
      <!-- Inner Fill -->
      <rect x="223" y="4"
            width="40" height="40"
            rx="5" fill="#fffffe"/>
      
      
        
        
        <rect x="223" y="4"
              width="40" height="40"
              rx="5" fill="url(#DCS)"/>
      

     
   
  </g>

  <g class='  keycap'
  >

  
    <!-- Outer Border -->
    <rect x="271" y="1"
          width="52" height="52"
          rx="5" fill="#ffffff" class="outer border"/>
    
    <!-- Outer Fill -->
    <rect x="271" y="1"
          width="52" height="52"
          rx="5" fill="#ffffff"/>
    

    
      <!-- Inner Border -->
      <rect x="277" y="4"
            width="40" height="40"
            rx="5" fill="#fffffe" class="inner border"/>
      
      <!-- Inner Fill -->
      <rect x="277" y="4"
            width="40" height="40"
            rx="5" fill="#fffffe"/>
      
      
        
        
        <rect x="277" y="4"
              width="40" height="40"
              rx="5" fill="url(#DCS)"/>
      

     
   
  </g>

  <g class='  keycap'
  >

  
    <!-- Outer Border -->
    <rect x="325" y="1"
          width="52" height="52"
          rx="5" fill="#ffffff" class="outer border"/>
    
    <!-- Outer Fill -->
    <rect x="325" y="1"
          width="52" height="52"
          rx="5" fill="#ffffff"/>
    

    
      <!-- Inner Border -->
      <rect x="331" y="4"
            width="40" height="40"
            rx="5" fill="#fffffe" class="inner border"/>
      
      <!-- Inner Fill -->
      <rect x="331" y="4"
            width="40" height="40"
            rx="5" fill="#fffffe"/>
      
      
        
        
        <rect x="331" y="4"
              width="40" height="40"
              rx="5" fill="url(#DCS)"/>
      

     
   
  </g>

  <g class='  keycap'
  >

  
    <!-- Outer Border -->
    <rect x="379" y="1"
          width="52" height="52"
          rx="5" fill="#ffffff" class="outer border"/>
    
    <!-- Outer Fill -->
    <rect x="379" y="1"
          width="52" height="52"
          rx="5" fill="#ffffff"/>
    

    
      <!-- Inner Border -->
      <rect x="385" y="4"
            width="40" height="40"
            rx="5" fill="#fffffe" class="inner border"/>
      
      <!-- Inner Fill -->
      <rect x="385" y="4"
            width="40" height="40"
            rx="5" fill="#fffffe"/>
      
      
        
        
        <rect x="385" y="4"
              width="40" height="40"
              rx="5" fill="url(#DCS)"/>
      

     
   
  </g>

  <g class='  keycap'
  >

  
    <!-- Outer Border -->
    <rect x="433" y="1"
          width="52" height="52"
          rx="5" fill="#ffffff" class="outer border"/>
    
    <!-- Outer Fill -->
    <rect x="433" y="1"
          width="52" height="52"
          rx="5" fill="#ffffff"/>
    

    
      <!-- Inner Border -->
      <rect x="439" y="4"
            width="40" height="40"
            rx="5" fill="#fffffe" class="inner border"/>
      
      <!-- Inner Fill -->
      <rect x="439" y="4"
            width="40" height="40"
            rx="5" fill="#fffffe"/>
      
      
        
        
        <rect x="439" y="4"
              width="40" height="40"
              rx="5" fill="url(#DCS)"/>
      

     
   
  </g>

  <g class='  keycap'
  >

  
    <!-- Outer Border -->
    <rect x="487" y="1"
          width="52" height="52"
          rx="5" fill="#ffffff" class="outer border"/>
    
    <!-- Outer Fill -->
    <rect x="487" y="1"
          width="52" height="52"
          rx="5" fill="#ffffff"/>
    

    
      <!-- Inner Border -->
      <rect x="493" y="4"
            width="40" height="40"
            rx="5" fill="#fffffe" class="inner border"/>
      
      <!-- Inner Fill -->
      <rect x="493" y="4"
            width="40" height="40"
            rx="5" fill="#fffffe"/>
      
      
        
        
        <rect x="493" y="4"
              width="40" height="40"
              rx="5" fill="url(#DCS)"/>
      

     
   
  </g>

  <g class='  keycap'
  >

  
    <!-- Outer Border -->
    <rect x="541" y="1"
          width="52" height="52"
          rx="5" fill="#ffffff" class="outer border"/>
    
    <!-- Outer Fill -->
    <rect x="541" y="1"
          width="52" height="52"
          rx="5" fill="#ffffff"/>
    

    
      <!-- Inner Border -->
      <rect x="547" y="4"
            width="40" height="40"
            rx="5" fill="#fffffe" class="inner border"/>
      
      <!-- Inner Fill -->
      <rect x="547" y="4"
            width="40" height="40"
            rx="5" fill="#fffffe"/>
      
      
        
        
        <rect x="547" y="4"
              width="40" height="40"
              rx="5" fill="url(#DCS)"/>
      

     
   
  </g>

  <g class='  keycap'
  >

  
    <!-- Outer Border -->
    <rect x="595" y="1"
          width="52" height="52"
          rx="5" fill="#ffffff" class="outer border"/>
    
    <!-- Outer Fill -->
    <rect x="595" y="1"
          width="52" height="52"
          rx="5" fill="#ffffff"/>
    

    
      <!-- Inner Border -->
      <rect x="601" y="4"
            width="40" height="40"
            rx="5" fill="#fffffe" class="inner border"/>
      
      <!-- Inner Fill -->
      <rect x="601" y="4"
            width="40" height="40"
            rx="5" fill="#fffffe"/>
      
      
        
        
        <rect x="601" y="4"
              width="40" height="40"
              rx="5" fill="url(#DCS)"/>
      

     
   
  </g>

  <g class='  keycap'
  >

  
    <!-- Outer Border -->
    <rect x="649" y="1"
          width="52" height="52"
          rx="5" fill="#ffffff" class="outer border"/>
    
    <!-- Outer Fill -->
    <rect x="649" y="1"
          width="52" height="52"
          rx="5" fill="#ffffff"/>
    

    
      <!-- Inner Border -->
      <rect x="655" y="4"
            width="40" height="40"
            rx="5" fill="#fffffe" class="inner border"/>
      
      <!-- Inner Fill -->
      <rect x="655" y="4"
            width="40" height="40"
            rx="5" fill="#fffffe"/>
      
      
        
        
        <rect x="655" y="4"
              width="40" height="40"
              rx="5" fill="url(#DCS)"/>
      

     
   
  </g>

  <g class='  keycap'
  >

  
    <!-- Outer Border -->
    <rect x="703" y="1"
          width="52" height="52"
          rx="5" fill="#ffffff" class="outer border"/>
    
    <!-- Outer Fill -->
    <rect x="703" y="1"
          width="52" height="52"
          rx="5" fill="#ffffff"/>
    

    
      <!-- Inner Border -->
      <rect x="709" y="4"
            width="40" height="40"
            rx="5" fill="#fffffe" class="inner border"/>
      
      <!-- Inner Fill -->
      <rect x="709" y="4"
            width="40" height="40"
            rx="5" fill="#fffffe"/>
      
      
        
        
        <rect x="709" y="4"
              width="40" height="40"
              rx="5" fill="url(#DCS)"/>
      

     
   
  </g>

  <g class='  keycap'
  >

  
    <!-- Outer Border -->
    <rect x="757" y="1"
          width="52" height="52"
          rx="5" fill="#a0a099" class="outer border"/>
    
    <!-- Outer Fill -->
    <rect x="757" y="1"
          width="52" height="52"
          rx="5" fill="#a0a099"/>
    

    
      <!-- Inner Border -->
      <rect x="763" y="4"
            width="40" height="40"
            rx="5" fill="#c5c5be" class="inner border"/>
      
      <!-- Inner Fill -->
      <rect x="763" y="4"
            width="40" height="40"
            rx="5" fill="#c5c5be"/>
      
      
        
        
        <rect x="763" y="4"
              width="40" height="40"
              rx="5" fill="url(#DCS)"/>
      

     
   
  </g>

  <g class='  keycap'
  >

  
    <!-- Outer Border -->
    <rect x="824.5" y="1"
          width="65.5" height="106"
          rx="5" fill="#a0a099" class="outer border"/>
    
      <rect x="811" y="1"
            width="79" height="52"
            rx="5" fill="#a0a099" class="outer border"/>
    
    <!-- Outer Fill -->
    <rect x="824.5" y="1"
          width="65.5" height="106"
          rx="5" fill="#a0a099"/>
    
      <rect x="811" y="1"
            width="79" height="52"
            rx="5" fill="#a0a099"/>
    

    
      <!-- Inner Border -->
      <rect x="830.5" y="4"
            width="53.5" height="94"
            rx="5" fill="#c5c5be" class="inner border"/>
      
        <rect x="817" y="4"
              width="67" height="40"
              rx="5" fill="#c5c5be" class="inner border"/>
      
      <!-- Inner Fill -->
      <rect x="830.5" y="4"
            width="53.5" height="94"
            rx="5" fill="#c5c5be"/>
      
        <rect x="817" y="4"
              width="67" height="40"
              rx="5" fill="#c5c5be"/>
      
      
        
        
          
          
            <linearGradient id="_fill14" xlink:href="#DCS" gradientUnits="userSpaceOnUse"
                            x1="816" y1="3" x2="885" y2="3"/>
          
          <rect x="817" y="4"
                width="67" height="40"
                rx="5" fill="#c5c5be"/>
          <rect x="817" y="4"
                width="67" height="40"
                rx="5" fill="url(#_fill14)"/>
          <rect x="830.5" y="4"
                width="53.5" height="94"
                rx="5" fill="#c5c5be"/>
        
        <rect x="830.5" y="4"
              width="53.5" height="94"
              rx="5" fill="url(#_fill14)"/>
      

     
   
  </g>

  <g class='  keycap'
  >

  
    <!-- Outer Border -->
    <rect x="919" y="1"
          width="52" height="52"
          rx="5" fill="#a0a099" class="outer border"/>
    
    <!-- Outer Fill -->
    <rect x="919" y="1"
          width="52" height="52"
          rx="5" fill="#a0a099"/>
    

    
      <!-- Inner Border -->
      <rect x="925" y="4"
            width="40" height="40"
            rx="5" fill="#c5c5be" class="inner border"/>
      
      <!-- Inner Fill -->
      <rect x="925" y="4"
            width="40" height="40"
            rx="5" fill="#c5c5be"/>
      
      
        
        
        <rect x="925" y="4"
              width="40" height="40"
              rx="5" fill="url(#DCS)"/>
      

     
   
  </g>

  <g class='  keycap'
  >

  
    <!-- Outer Border -->
    <rect x="973" y="1"
          width="52" height="52"
          rx="5" fill="#a0a099" class="outer border"/>
    
    <!-- Outer Fill -->
    <rect x="973" y="1"
          width="52" height="52"
          rx="5" fill="#a0a099"/>
    

    
      <!-- Inner Border -->
      <rect x="979" y="4"
            width="40" height="40"
            rx="5" fill="#c5c5be" class="inner border"/>
      
      <!-- Inner Fill -->
      <rect x="979" y="4"
            width="40" height="40"
            rx="5" fill="#c5c5be"/>
      
      
        
        
        <rect x="979" y="4"
              width="40" height="40"
              rx="5" fill="url(#DCS)"/>
      

     
   
  </g>

  <g class='  keycap'
  >

  
    <!-- Outer Border -->
    <rect x="1027" y="1"
          width="52" height="52"
          rx="5" fill="#a0a099" class="outer border"/>
    
    <!-- Outer Fill -->
    <rect x="1027" y="1"
          width="52" height="52"
          rx="5" fill="#a0a099"/>
    

    
      <!-- Inner Border -->
      <rect x="1033" y="4"
            width="40" height="40"
            rx="5" fill="#c5c5be" class="inner border"/>
      
      <!-- Inner Fill -->
      <rect x="1033" y="4"
            width="40" height="40"
            rx="5" fill="#c5c5be"/>
      
      
        
        
        <rect x="1033" y="4"
              width="40" height="40"
              rx="5" fill="url(#DCS)"/>
      

     
   
  </g>

  <g class='  keycap'
  >

  
    <!-- Outer Border -->
    <rect x="1" y="55"
          width="52" height="52"
          rx="5" fill="#a0a099" class="outer border"/>
    
    <!-- Outer Fill -->
    <rect x="1" y="55"
          width="52" height="52"
          rx="5" fill="#a0a099"/>
    

    
      <!-- Inner Border -->
      <rect x="7" y="58"
            width="40" height="40"
            rx="5" fill="#c5c5be" class="inner border"/>
      
      <!-- Inner Fill -->
      <rect x="7" y="58"
            width="40" height="40"
            rx="5" fill="#c5c5be"/>
      
      
        
        
        <rect x="7" y="58"
              width="40" height="40"
              rx="5" fill="url(#DCS)"/>
      

     
   
  </g>

  <g class='  keycap'
  >

  
    <!-- Outer Border -->
    <rect x="55" y="55"
          width="52" height="52"
          rx="5" fill="#a0a099" class="outer border"/>
    
    <!-- Outer Fill -->
    <rect x="55" y="55"
          width="52" height="52"
          rx="5" fill="#a0a099"/>
    

    
      <!-- Inner Border -->
      <rect x="61" y="58"
            width="40" height="40"
            rx="5" fill="#c5c5be" class="inner border"/>
      
      <!-- Inner Fill -->
      <rect x="61" y="58"
            width="40" height="40"
            rx="5" fill="#c5c5be"/>
      
      
        
        
        <rect x="61" y="58"
              width="40" height="40"
              rx="5" fill="url(#DCS)"/>
      

     
   
  </g>

  <g class='  keycap'
  >

  
    <!-- Outer Border -->
    <rect x="136" y="55"
          width="79" height="52"
          rx="5" fill="#a0a099" class="outer border"/>
    
      <rect x="136" y="55"
            width="92.5" height="52"
            rx="5" fill="#a0a099" class="outer border"/>
    
    <!-- Outer Fill -->
    <rect x="136" y="55"
          width="79" height="52"
          rx="5" fill="#a0a099"/>
    
      <rect x="136" y="55"
            width="92.5" height="52"
            rx="5" fill="#a0a099"/>
    

    
      <!-- Inner Border -->
      <rect x="142" y="58"
            width="67" height="40"
            rx="5" fill="#c5c5be" class="inner border"/>
      
      <!-- Inner Fill -->
      <rect x="142" y="58"
            width="67" height="40"
            rx="5" fill="#c5c5be"/>
      
      
        
        
        <rect x="142" y="58"
              width="67" height="40"
              rx="5" fill="url(#DCS)"/>
      

     
   
  </g>

  <g class='  keycap'
  >

  
    <!-- Outer Border -->
    <rect x="230.5" y="55"
          width="52" height="52"
          rx="5" fill="#ffffff" class="outer border"/>
    
    <!-- Outer Fill -->
    <rect x="230.5" y="55"
          width="52" height="52"
          rx="5" fill="#ffffff"/>
    

    
      <!-- Inner Border -->
      <rect x="236.5" y="58"
            width="40" height="40"
            rx="5" fill="#fffffe" class="inner border"/>
      
      <!-- Inner Fill -->
      <rect x="236.5" y="58"
            width="40" height="40"
            rx="5" fill="#fffffe"/>
      
      
        
        
        <rect x="236.5" y="58"
              width="40" height="40"
              rx="5" fill="url(#DCS)"/>
      

     
   
  </g>

  <g class='  keycap'
  >

  
    <!-- Outer Border -->
    <rect x="284.5" y="55"
          width="52" height="52"
          rx="5" fill="#ffffff" class="outer border"/>
    
    <!-- Outer Fill -->
    <rect x="284.5" y="55"
          width="52" height="52"
          rx="5" fill="#ffffff"/>
    

    
      <!-- Inner Border -->
      <rect x="290.5" y="58"
            width="40" height="40"
            rx="5" fill="#fffffe" class="inner border"/>
      
      <!-- Inner Fill -->
      <rect x="290.5" y="58"
            width="40" height="40"
            rx="5" fill="#fffffe"/>
      
      
        
        
        <rect x="290.5" y="58"
              width="40" height="40"
              rx="5" fill="url(#DCS)"/>
      

     
   
  </g>

  <g class='  keycap'
  >

  
    <!-- Outer Border -->
    <rect x="338.5" y="55"
          width="52" height="52"
          rx="5" fill="#ffffff" class="outer border"/>
    
    <!-- Outer Fill -->
    <rect x="338.5" y="55"
          width="52" height="52"
          rx="5" fill="#ffffff"/>
    

    
      <!-- Inner Border -->
      <rect x="344.5" y="58"
            width="40" height="40"
            rx="5" fill="#fffffe" class="inner border"/>
      
      <!-- Inner Fill -->
      <rect x="344.5" y="58"
            width="40" height="40"
            rx="5" fill="#fffffe"/>
      
      
        
        
        <rect x="344.5" y="58"
              width="40" height="40"
              rx="5" fill="url(#DCS)"/>
      

     
   
  </g>

  <g class='  keycap'
  >

  
    <!-- Outer Border -->
    <rect x="392.5" y="55"
          width="52" height="52"
          rx="5" fill="#ffffff" class="outer border"/>
    
    <!-- Outer Fill -->
    <rect x="392.5" y="55"
          width="52" height="52"
          rx="5" fill="#ffffff"/>
    

    
      <!-- Inner Border -->
      <rect x="398.5" y="58"
            width="40" height="40"
            rx="5" fill="#fffffe" class="inner border"/>
      
      <!-- Inner Fill -->
      <rect x="398.5" y="58"
            width="40" height="40"
            rx="5" fill="#fffffe"/>
      
      
        
        
        <rect x="398.5" y="58"
              width="40" height="40"
              rx="5" fill="url(#DCS)"/>
      

     
   
  </g>

  <g class='  keycap'
  >

  
    <!-- Outer Border -->
    <rect x="446.5" y="55"
          width="52" height="52"
          rx="5" fill="#ffffff" class="outer border"/>
    
    <!-- Outer Fill -->
    <rect x="446.5" y="55"
          width="52" height="52"
          rx="5" fill="#ffffff"/>
    

    
      <!-- Inner Border -->
      <rect x="452.5" y="58"
            width="40" height="40"
            rx="5" fill="#fffffe" class="inner border"/>
      
      <!-- Inner Fill -->
      <rect x="452.5" y="58"
            width="40" height="40"
            rx="5" fill="#fffffe"/>
      
      
        
        
        <rect x="452.5" y="58"
              width="40" height="40"
              rx="5" fill="url(#DCS)"/>
      

     
   
  </g>

  <g class='  keycap'
  >

  
    <!-- Outer Border -->
    <rect x="500.5" y="55"
          width="52" height="52"
          rx="5" fill="#ffffff" class="outer border"/>
    
    <!-- Outer Fill -->
    <rect x="500.5" y="55"
          width="52" height="52"
          rx="5" fill="#ffffff"/>
    

    
      <!-- Inner Border -->
      <rect x="506.5" y="58"
            width="40" height="40"
            rx="5" fill="#fffffe" class="inner border"/>
      
      <!-- Inner Fill -->
      <rect x="506.5" y="58"
            width="40" height="40"
            rx="5" fill="#fffffe"/>
      
      
        
        
        <rect x="506.5" y="58"
              width="40" height="40"
              rx="5" fill="url(#DCS)"/>
      

     
   
  </g>

  <g class='  keycap'
  >

  
    <!-- Outer Border -->
    <rect x="554.5" y="55"
          width="52" height="52"
          rx="5" fill="#ffffff" class="outer border"/>
    
    <!-- Outer Fill -->
    <rect x="554.5" y="55"
          width="52" height="52"
          rx="5" fill="#ffffff"/>
    

    
      <!-- Inner Border -->
      <rect x="560.5" y="58"
            width="40" height="40"
            rx="5" fill="#fffffe" class="inner border"/>
      
      <!-- Inner Fill -->
      <rect x="560.5" y="58"
            width="40" height="40"
            rx="5" fill="#fffffe"/>
      
      
        
        
        <rect x="560.5" y="58"
              width="40" height="40"
              rx="5" fill="url(#DCS)"/>
      

     
   
  </g>

  <g class='  keycap'
  >

  
    <!-- Outer Border -->
    <rect x="608.5" y="55"
          width="52" height="52"
          rx="5" fill="#ffffff" class="outer border"/>
    
    <!-- Outer Fill -->
    <rect x="608.5" y="55"
          width="52" height="52"
          rx="5" fill="#ffffff"/>
    

    
      <!-- Inner Border -->
      <rect x="614.5" y="58"
            width="40" height="40"
            rx="5" fill="#fffffe" class="inner border"/>
      
      <!-- Inner Fill -->
      <rect x="614.5" y="58"
            width="40" height="40"
            rx="5" fill="#fffffe"/>
      
      
        
        
        <rect x="614.5" y="58"
              width="40" height="40"
              rx="5" fill="url(#DCS)"/>
      

     
   
  </g>

  <g class='  keycap'
  >

  
    <!-- Outer Border -->
    <rect x="662.5" y="55"
          width="52" height="52"
          rx="5" fill="#ffffff" class="outer border"/>
    
    <!-- Outer Fill -->
    <rect x="662.5" y="55"
          width="52" height="52"
          rx="5" fill="#ffffff"/>
    

    
      <!-- Inner Border -->
      <rect x="668.5" y="58"
            width="40" height="40"
            rx="5" fill="#fffffe" class="inner border"/>
      
      <!-- Inner Fill -->
      <rect x="668.5" y="58"
            width="40" height="40"
            rx="5" fill="#fffffe"/>
      
      
        
        
        <rect x="668.5" y="58"
              width="40" height="40"
              rx="5" fill="url(#DCS)"/>
      

     
   
  </g>

  <g class='  keycap'
  >

  
    <!-- Outer Border -->
    <rect x="716.5" y="55"
          width="52" height="52"
          rx="5" fill="#ffffff" class="outer border"/>
    
    <!-- Outer Fill -->
    <rect x="716.5" y="55"
          width="52" height="52"
          rx="5" fill="#ffffff"/>
    

    
      <!-- Inner Border -->
      <rect x="722.5" y="58"
            width="40" height="40"
            rx="5" fill="#fffffe" class="inner border"/>
      
      <!-- Inner Fill -->
      <rect x="722.5" y="58"
            width="40" height="40"
            rx="5" fill="#fffffe"/>
      
      
        
        
        <rect x="722.5" y="58"
              width="40" height="40"
              rx="5" fill="url(#DCS)"/>
      

     
   
  </g>

  <g class='  keycap'
  >

  
    <!-- Outer Border -->
    <rect x="770.5" y="55"
          width="52" height="52"
          rx="5" fill="#ffffff" class="outer border"/>
    
    <!-- Outer Fill -->
    <rect x="770.5" y="55"
          width="52" height="52"
          rx="5" fill="#ffffff"/>
    

    
      <!-- Inner Border -->
      <rect x="776.5" y="58"
            width="40" height="40"
            rx="5" fill="#fffffe" class="inner border"/>
      
      <!-- Inner Fill -->
      <rect x="776.5" y="58"
            width="40" height="40"
            rx="5" fill="#fffffe"/>
      
      
        
        
        <rect x="776.5" y="58"
              width="40" height="40"
              rx="5" fill="url(#DCS)"/>
      

     
   
  </g>

  <g class='  keycap'
  >

  
    <!-- Outer Border -->
    <rect x="973" y="55"
          width="52" height="52"
          rx="5" fill="#a0a099" class="outer border"/>
    
    <!-- Outer Fill -->
    <rect x="973" y="55"
          width="52" height="52"
          rx="5" fill="#a0a099"/>
    

    
      <!-- Inner Border -->
      <rect x="979" y="58"
            width="40" height="40"
            rx="5" fill="#c5c5be" class="inner border"/>
      
      <!-- Inner Fill -->
      <rect x="979" y="58"
            width="40" height="40"
            rx="5" fill="#c5c5be"/>
      
      
        
        
        <rect x="979" y="58"
              width="40" height="40"
              rx="5" fill="url(#DCS)"/>
      

     
   
  </g>

  <g class='  keycap'
  >

  
    <!-- Outer Border -->
    <rect x="1" y="109"
          width="52" height="52"
          rx="5" fill="#a0a099" class="outer border"/>
    
    <!-- Outer Fill -->
    <rect x="1" y="109"
          width="52" height="52"
          rx="5" fill="#a0a099"/>
    

    
      <!-- Inner Border -->
      <rect x="7" y="112"
            width="40" height="40"
            rx="5" fill="#c5c5be" class="inner border"/>
      
      <!-- Inner Fill -->
      <rect x="7" y="112"
            width="40" height="40"
            rx="5" fill="#c5c5be"/>
      
      
        
        
        <rect x="7" y="112"
              width="40" height="40"
              rx="5" fill="url(#DCS)"/>
      

     
   
  </g>

  <g class='  keycap'
  >

  
    <!-- Outer Border -->
    <rect x="55" y="109"
          width="52" height="52"
          rx="5" fill="#a0a099" class="outer border"/>
    
    <!-- Outer Fill -->
    <rect x="55" y="109"
          width="52" height="52"
          rx="5" fill="#a0a099"/>
    

    
      <!-- Inner Border -->
      <rect x="61" y="112"
            width="40" height="40"
            rx="5" fill="#c5c5be" class="inner border"/>
      
      <!-- Inner Fill -->
      <rect x="61" y="112"
            width="40" height="40"
            rx="5" fill="#c5c5be"/>
      
      
        
        
        <rect x="61" y="112"
              width="40" height="40"
              rx="5" fill="url(#DCS)"/>
      

     
   
  </g>

  <g class='  keycap'
  >

  
    <!-- Outer Border -->
    <rect x="136" y="109"
          width="119.5" height="52"
          rx="5" fill="#a0a099" class="outer border"/>
    
    <!-- Outer Fill -->
    <rect x="136" y="109"
          width="119.5" height="52"
          rx="5" fill="#a0a099"/>
    

    
      <!-- Inner Border -->
      <rect x="142" y="112"
            width="107.5" height="40"
            rx="5" fill="#c5c5be" class="inner border"/>
      
      <!-- Inner Fill -->
      <rect x="142" y="112"
            width="107.5" height="40"
            rx="5" fill="#c5c5be"/>
      
      
        
        
        <rect x="142" y="112"
              width="107.5" height="40"
              rx="5" fill="url(#DCS)"/>
      

     
   
  </g>

  <g class='  keycap'
  >

  
    <!-- Outer Border -->
    <rect x="257.5" y="109"
          width="52" height="52"
          rx="5" fill="#ffffff" class="outer border"/>
    
    <!-- Outer Fill -->
    <rect x="257.5" y="109"
          width="52" height="52"
          rx="5" fill="#ffffff"/>
    

    
      <!-- Inner Border -->
      <rect x="263.5" y="112"
            width="40" height="40"
            rx="5" fill="#fffffe" class="inner border"/>
      
      <!-- Inner Fill -->
      <rect x="263.5" y="112"
            width="40" height="40"
            rx="5" fill="#fffffe"/>
      
      
        
        
        <rect x="263.5" y="112"
              width="40" height="40"
              rx="5" fill="url(#DCS)"/>
      

     
   
  </g>

  <g class='  keycap'
  >

  
    <!-- Outer Border -->
    <rect x="311.5" y="109"
          width="52" height="52"
          rx="5" fill="#ffffff" class="outer border"/>
    
    <!-- Outer Fill -->
    <rect x="311.5" y="109"
          width="52" height="52"
          rx="5" fill="#ffffff"/>
    

    
      <!-- Inner Border -->
      <rect x="317.5" y="112"
            width="40" height="40"
            rx="5" fill="#fffffe" class="inner border"/>
      
      <!-- Inner Fill -->
      <rect x="317.5" y="112"
            width="40" height="40"
            rx="5" fill="#fffffe"/>
      
      
        
        
        <rect x="317.5" y="112"
              width="40" height="40"
              rx="5" fill="url(#DCS)"/>
      

     
   
  </g>

  <g class='  keycap'
  >

  
    <!-- Outer Border -->
    <rect x="365.5" y="109"
          width="52" height="52"
          rx="5" fill="#ffffff" class="outer border"/>
    
    <!-- Outer Fill -->
    <rect x="365.5" y="109"
          width="52" height="52"
          rx="5" fill="#ffffff"/>
    

    
      <!-- Inner Border -->
      <rect x="371.5" y="112"
            width="40" height="40"
            rx="5" fill="#fffffe" class="inner border"/>
      
      <!-- Inner Fill -->
      <rect x="371.5" y="112"
            width="40" height="40"
            rx="5" fill="#fffffe"/>
      
      
        
        
        <rect x="371.5" y="112"
              width="40" height="40"
              rx="5" fill="url(#DCS)"/>
      

     
   
  </g>

  <g class='  keycap'
  >

  
    <!-- Outer Border -->
    <rect x="419.5" y="109"
          width="52" height="52"
          rx="5" fill="#ffffff" class="outer border"/>
    
    <!-- Outer Fill -->
    <rect x="419.5" y="109"
          width="52" height="52"
          rx="5" fill="#ffffff"/>
    

    
      <!-- Inner Border -->
      <rect x="425.5" y="112"
            width="40" height="40"
            rx="5" fill="#fffffe" class="inner border"/>
      
      <!-- Inner Fill -->
      <rect x="425.5" y="112"
            width="40" height="40"
            rx="5" fill="#fffffe"/>
      
      
        
        
        <rect x="425.5" y="112"
              width="40" height="40"
              rx="5" fill="url(#DCS)"/>
      

     
   
  </g>

  <g class='  keycap'
  >

  
    <!-- Outer Border -->
    <rect x="473.5" y="109"
          width="52" height="52"
          rx="5" fill="#ffffff" class="outer border"/>
    
    <!-- Outer Fill -->
    <rect x="473.5" y="109"
          width="52" height="52"
          rx="5" fill="#ffffff"/>
    

    
      <!-- Inner Border -->
      <rect x="479.5" y="112"
            width="40" height="40"
            rx="5" fill="#fffffe" class="inner border"/>
      
      <!-- Inner Fill -->
      <rect x="479.5" y="112"
            width="40" height="40"
            rx="5" fill="#fffffe"/>
      
      
        
        
        <rect x="479.5" y="112"
              width="40" height="40"
              rx="5" fill="url(#DCS)"/>
      

     
   
  </g>

  <g class='  keycap'
  >

  
    <!-- Outer Border -->
    <rect x="527.5" y="109"
          width="52" height="52"
          rx="5" fill="#ffffff" class="outer border"/>
    
    <!-- Outer Fill -->
    <rect x="527.5" y="109"
          width="52" height="52"
          rx="5" fill="#ffffff"/>
    

    
      <!-- Inner Border -->
      <rect x="533.5" y="112"
            width="40" height="40"
            rx="5" fill="#fffffe" class="inner border"/>
      
      <!-- Inner Fill -->
      <rect x="533.5" y="112"
            width="40" height="40"
            rx="5" fill="#fffffe"/>
      
      
        
        
        <rect x="533.5" y="112"
              width="40" height="40"
              rx="5" fill="url(#DCS)"/>
      

     
   
  </g>

  <g class='  keycap'
  >

  
    <!-- Outer Border -->
    <rect x="581.5" y="109"
          width="52" height="52"
          rx="5" fill="#ffffff" class="outer border"/>
    
    <!-- Outer Fill -->
    <rect x="581.5" y="109"
          width="52" height="52"
          rx="5" fill="#ffffff"/>
    

    
      <!-- Inner Border -->
      <rect x="587.5" y="112"
            width="40" height="40"
            rx="5" fill="#fffffe" class="inner border"/>
      
      <!-- Inner Fill -->
      <rect x="587.5" y="112"
            width="40" height="40"
            rx="5" fill="#fffffe"/>
      
      
        
        
        <rect x="587.5" y="112"
              width="40" height="40"
              rx="5" fill="url(#DCS)"/>
      

     
   
  </g>

  <g class='  keycap'
  >

  
    <!-- Outer Border -->
    <rect x="635.5" y="109"
          width="52" height="52"
          rx="5" fill="#ffffff" class="outer border"/>
    
    <!-- Outer Fill -->
    <rect x="635.5" y="109"
          width="52" height="52"
          rx="5" fill="#ffffff"/>
    

    
      <!-- Inner Border -->
      <rect x="641.5" y="112"
            width="40" height="40"
            rx="5" fill="#fffffe" class="inner border"/>
      
      <!-- Inner Fill -->
      <rect x="641.5" y="112"
            width="40" height="40"
            rx="5" fill="#fffffe"/>
      
      
        
        
        <rect x="641.5" y="112"
              width="40" height="40"
              rx="5" fill="url(#DCS)"/>
      

     
   
  </g>

  <g class='  keycap'
  >

  
    <!-- Outer Border -->
    <rect x="689.5" y="109"
          width="52" height="52"
          rx="5" fill="#ffffff" class="outer border"/>
    
    <!-- Outer Fill -->
    <rect x="689.5" y="109"
          width="52" height="52"
          rx="5" fill="#ffffff"/>
    

    
      <!-- Inner Border -->
      <rect x="695.5" y="112"
            width="40" height="40"
            rx="5" fill="#fffffe" class="inner border"/>
      
      <!-- Inner Fill -->
      <rect x="695.5" y="112"
            width="40" height="40"
            rx="5" fill="#fffffe"/>
      
      
        
        
        <rect x="695.5" y="112"
              width="40" height="40"
              rx="5" fill="url(#DCS)"/>
      

     
   
  </g>

  <g class='  keycap'
  >

  
    <!-- Outer Border -->
    <rect x="743.5" y="109"
          width="52" height="52"
          rx="5" fill="#ffffff" class="outer border"/>
    
    <!-- Outer Fill -->
    <rect x="743.5" y="109"
          width="52" height="52"
          rx="5" fill="#ffffff"/>
    

    
      <!-- Inner Border -->
      <rect x="749.5" y="112"
            width="40" height="40"
            rx="5" fill="#fffffe" class="inner border"/>
      
      <!-- Inner Fill -->
      <rect x="749.5" y="112"
            width="40" height="40"
            rx="5" fill="#fffffe"/>
      
      
        
        
        <rect x="749.5" y="112"
              width="40" height="40"
              rx="5" fill="url(#DCS)"/>
      

     
   
  </g>

  <g class='  keycap'
  >

  
    <!-- Outer Border -->
    <rect x="797.5" y="109"
          width="92.5" height="52"
          rx="5" fill="#a0a099" class="outer border"/>
    
    <!-- Outer Fill -->
    <rect x="797.5" y="109"
          width="92.5" height="52"
          rx="5" fill="#a0a099"/>
    

    
      <!-- Inner Border -->
      <rect x="803.5" y="112"
            width="80.5" height="40"
            rx="5" fill="#c5c5be" class="inner border"/>
      
      <!-- Inner Fill -->
      <rect x="803.5" y="112"
            width="80.5" height="40"
            rx="5" fill="#c5c5be"/>
      
      
        
        
        <rect x="803.5" y="112"
              width="80.5" height="40"
              rx="5" fill="url(#DCS)"/>
      

     
   
  </g>

  <g class='  keycap'
  >

  
    <!-- Outer Border -->
    <rect x="919" y="109"
          width="52" height="52"
          rx="5" fill="#a0a099" class="outer border"/>
    
    <!-- Outer Fill -->
    <rect x="919" y="109"
          width="52" height="52"
          rx="5" fill="#a0a099"/>
    

    
      <!-- Inner Border -->
      <rect x="925" y="112"
            width="40" height="40"
            rx="5" fill="#c5c5be" class="inner border"/>
      
      <!-- Inner Fill -->
      <rect x="925" y="112"
            width="40" height="40"
            rx="5" fill="#c5c5be"/>
      
      
        
        
        <rect x="925" y="112"
              width="40" height="40"
              rx="5" fill="url(#DCS)"/>
      

     
   
  </g>

  <g class='  keycap'
  >

  
    <!-- Outer Border -->
    <rect x="973" y="109"
          width="52" height="52"
          rx="5" fill="#a0a099" class="outer border"/>
    
    <!-- Outer Fill -->
    <rect x="973" y="109"
          width="52" height="52"
          rx="5" fill="#a0a099"/>
    

    
      <!-- Inner Border -->
      <rect x="979" y="112"
            width="40" height="40"
            rx="5" fill="#c5c5be" class="inner border"/>
      
      <!-- Inner Fill -->
      <rect x="979" y="112"
            width="40" height="40"
            rx="5" fill="#c5c5be"/>
      
      
        
        
        <rect x="979" y="112"
              width="40" height="40"
              rx="5" fill="url(#DCS)"/>
      

     
   
  </g>

  <g class='  keycap'
  >

  
    <!-- Outer Border -->
    <rect x="1027" y="109"
          width="52" height="52"
          rx="5" fill="#a0a099" class="outer border"/>
    
    <!-- Outer Fill -->
    <rect x="1027" y="109"
          width="52" height="52"
          rx="5" fill="#a0a099"/>
    

    
      <!-- Inner Border -->
      <rect x="1033" y="112"
            width="40" height="40"
            rx="5" fill="#c5c5be" class="inner border"/>
      
      <!-- Inner Fill -->
      <rect x="1033" y="112"
            width="40" height="40"
            rx="5" fill="#c5c5be"/>
      
      
        
        
        <rect x="1033" y="112"
              width="40" height="40"
              rx="5" fill="url(#DCS)"/>
      

     
   
  </g>

  <g class='  keycap'
  >

  
    <!-- Outer Border -->
    <rect x="1" y="163"
          width="52" height="52"
          rx="5" fill="#a0a099" class="outer border"/>
    
    <!-- Outer Fill -->
    <rect x="1" y="163"
          width="52" height="52"
          rx="5" fill="#a0a099"/>
    

    
      <!-- Inner Border -->
      <rect x="7" y="166"
            width="40" height="40"
            rx="5" fill="#c5c5be" class="inner border"/>
      
      <!-- Inner Fill -->
      <rect x="7" y="166"
            width="40" height="40"
            rx="5" fill="#c5c5be"/>
      
      
        
        
        <rect x="7" y="166"
              width="40" height="40"
              rx="5" fill="url(#DCS)"/>
      

     
   
  </g>

  <g class='  keycap'
  >

  
    <!-- Outer Border -->
    <rect x="55" y="163"
          width="52" height="52"
          rx="5" fill="#a0a099" class="outer border"/>
    
    <!-- Outer Fill -->
    <rect x="55" y="163"
          width="52" height="52"
          rx="5" fill="#a0a099"/>
    

    
      <!-- Inner Border -->
      <rect x="61" y="166"
            width="40" height="40"
            rx="5" fill="#c5c5be" class="inner border"/>
      
      <!-- Inner Fill -->
      <rect x="61" y="166"
            width="40" height="40"
            rx="5" fill="#c5c5be"/>
      
      
        
        
        <rect x="61" y="166"
              width="40" height="40"
              rx="5" fill="url(#DCS)"/>
      

     
   
  </g>

  <g class='  keycap'
  >

  
    <!-- Outer Border -->
    <rect x="136" y="163"
          width="79" height="52"
          rx="5" fill="#a0a099" class="outer border"/>
    
    <!-- Outer Fill -->
    <rect x="136" y="163"
          width="79" height="52"
          rx="5" fill="#a0a099"/>
    

    
      <!-- Inner Border -->
      <rect x="142" y="166"
            width="67" height="40"
            rx="5" fill="#c5c5be" class="inner border"/>
      
      <!-- Inner Fill -->
      <rect x="142" y="166"
            width="67" height="40"
            rx="5" fill="#c5c5be"/>
      
      
        
        
        <rect x="142" y="166"
              width="67" height="40"
              rx="5" fill="url(#SPACE)"/>
      

     
   
  </g>

  <g class='  keycap'
  >

  
    <!-- Outer Border -->
    <rect x="257.5" y="163"
          width="79" height="52"
          rx="5" fill="#a0a099" class="outer border"/>
    
    <!-- Outer Fill -->
    <rect x="257.5" y="163"
          width="79" height="52"
          rx="5" fill="#a0a099"/>
    

    
      <!-- Inner Border -->
      <rect x="263.5" y="166"
            width="67" height="40"
            rx="5" fill="#c5c5be" class="inner border"/>
      
      <!-- Inner Fill -->
      <rect x="263.5" y="166"
            width="67" height="40"
            rx="5" fill="#c5c5be"/>
      
      
        
        
        <rect x="263.5" y="166"
              width="67" height="40"
              rx="5" fill="url(#SPACE)"/>
      

     
   
  </g>

  <g class='  keycap'
  >

  
    <!-- Outer Border -->
    <rect x="338.5" y="163"
          width="106" height="52"
          rx="5" fill="#a0a099" class="outer border"/>
    
    <!-- Outer Fill -->
    <rect x="338.5" y="163"
          width="106" height="52"
          rx="5" fill="#a0a099"/>
    

    
      <!-- Inner Border -->
      <rect x="344.5" y="166"
            width="94" height="40"
            rx="5" fill="#c5c5be" class="inner border"/>
      
      <!-- Inner Fill -->
      <rect x="344.5" y="166"
            width="94" height="40"
            rx="5" fill="#c5c5be"/>
      
      
        
        
        <rect x="344.5" y="166"
              width="94" height="40"
              rx="5" fill="url(#SPACE)"/>
      

     
   
  </g>

  <g class='  keycap'
  >

  
    <!-- Outer Border -->
    <rect x="446.5" y="163"
          width="106" height="52"
          rx="5" fill="#ffffff" class="outer border"/>
    
    <!-- Outer Fill -->
    <rect x="446.5" y="163"
          width="106" height="52"
          rx="5" fill="#ffffff"/>
    

    
      <!-- Inner Border -->
      <rect x="452.5" y="166"
            width="94" height="40"
            rx="5" fill="#fffffe" class="inner border"/>
      
      <!-- Inner Fill -->
      <rect x="452.5" y="166"
            width="94" height="40"
            rx="5" fill="#fffffe"/>
      
      
        
        
        <rect x="452.5" y="166"
              width="94" height="40"
              rx="5" fill="url(#SPACE)"/>
      

     
   
  </g>

  <g class='  keycap'
  >

  
    <!-- Outer Border -->
    <rect x="554.5" y="163"
          width="106" height="52"
          rx="5" fill="#a0a099" class="outer border"/>
    
    <!-- Outer Fill -->
    <rect x="554.5" y="163"
          width="106" height="52"
          rx="5" fill="#a0a099"/>
    

    
      <!-- Inner Border -->
      <rect x="560.5" y="166"
            width="94" height="40"
            rx="5" fill="#c5c5be" class="inner border"/>
      
      <!-- Inner Fill -->
      <rect x="560.5" y="166"
            width="94" height="40"
            rx="5" fill="#c5c5be"/>
      
      
        
        
        <rect x="560.5" y="166"
              width="94" height="40"
              rx="5" fill="url(#SPACE)"/>
      

     
   
  </g>

  <g class='  keycap'
  >

  
    <!-- Outer Border -->
    <rect x="662.5" y="163"
          width="79" height="52"
          rx="5" fill="#a0a099" class="outer border"/>
    
    <!-- Outer Fill -->
    <rect x="662.5" y="163"
          width="79" height="52"
          rx="5" fill="#a0a099"/>
    

    
      <!-- Inner Border -->
      <rect x="668.5" y="166"
            width="67" height="40"
            rx="5" fill="#c5c5be" class="inner border"/>
      
      <!-- Inner Fill -->
      <rect x="668.5" y="166"
            width="67" height="40"
            rx="5" fill="#c5c5be"/>
      
      
        
        
        <rect x="668.5" y="166"
              width="67" height="40"
              rx="5" fill="url(#SPACE)"/>
      

     
   
  </g>

  <g class='  keycap'
  >

  
    <!-- Outer Border -->
    <rect x="757" y="163"
          width="52" height="52"
          rx="5" fill="#a0a099" class="outer border"/>
    
    <!-- Outer Fill -->
    <rect x="757" y="163"
          width="52" height="52"
          rx="5" fill="#a0a099"/>
    

    
      <!-- Inner Border -->
      <rect x="763" y="166"
            width="40" height="40"
            rx="5" fill="#c5c5be" class="inner border"/>
      
      <!-- Inner Fill -->
      <rect x="763" y="166"
            width="40" height="40"
            rx="5" fill="#c5c5be"/>
      
      

     
   
  </g>

  <g class='  keycap'
  >

  
    <!-- Outer Border -->
    <rect x="811" y="163"
          width="79" height="52"
          rx="5" fill="#a0a099" class="outer border"/>
    
    <!-- Outer Fill -->
    <rect x="811" y="163"
          width="79" height="52"
          rx="5" fill="#a0a099"/>
    

    
      <!-- Inner Border -->
      <rect x="817" y="166"
            width="67" height="40"
            rx="5" fill="#c5c5be" class="inner border"/>
      
      <!-- Inner Fill -->
      <rect x="817" y="166"
            width="67" height="40"
            rx="5" fill="#c5c5be"/>
      
      
        
        
        <rect x="817" y="166"
              width="67" height="40"
              rx="5" fill="url(#SPACE)"/>
      

     
   
  </g>

  <g class='  keycap'
  >

  
    <!-- Outer Border -->
    <rect x="973" y="163"
          width="52" height="52"
          rx="5" fill="#a0a099" class="outer border"/>
    
    <!-- Outer Fill -->
    <rect x="973" y="163"
          width="52" height="52"
          rx="5" fill="#a0a099"/>
    

    
      <!-- Inner Border -->
      <rect x="979" y="166"
            width="40" height="40"
            rx="5" fill="#c5c5be" class="inner border"/>
      
      <!-- Inner Fill -->
      <rect x="979" y="166"
            width="40" height="40"
            rx="5" fill="#c5c5be"/>
      
      
        
        
        <rect x="979" y="166"
              width="40" height="40"
              rx="5" fill="url(#DCS)"/>
      

     
   
  </g>

      </g>
    </g>
  </svg>
